<svg width="174" height="25" viewBox="0 0 174 25" fill="none" xmlns="http://www.w3.org/2000/svg">
<g clip-path="url(#clip0_916_263)">
<path d="M17.5405 13.898L18.2017 9.58737H14.0657V6.79002C14.0657 5.61069 14.6435 4.46117 16.496 4.46117H18.3765V0.791281C18.3765 0.791281 16.6698 0.5 15.0383 0.5C11.6319 0.5 9.40556 2.56447 9.40556 6.30195V9.58737H5.61914V13.898H9.40556V24.3188C10.1648 24.438 10.943 24.5 11.7357 24.5C12.5284 24.5 13.3065 24.438 14.0657 24.3188V13.898H17.5405Z" fill="#D0CFD4"/>
</g>
<path d="M57.5475 22.2512C66.6042 22.2512 71.5578 14.7479 71.5578 8.24098C71.5578 8.02789 71.5578 7.81573 71.5434 7.60452C72.507 6.90744 73.3389 6.04442 74 5.05573C73.1014 5.45394 72.148 5.71503 71.1718 5.83044C72.1995 5.21525 72.9692 4.24691 73.3366 3.10691C72.3701 3.68042 71.3126 4.08467 70.2099 4.30213C69.2789 3.31208 67.9786 2.75 66.6196 2.75C63.9158 2.75 61.691 4.97487 61.691 7.67863C61.691 8.05372 61.7338 8.42764 61.8185 8.79299C57.8615 8.59466 54.1695 6.72294 51.6704 3.64836C50.3708 5.88552 51.0432 8.78474 53.1949 10.2215C52.4113 10.1983 51.6447 9.98684 50.96 9.60514V9.66753C50.9607 12.0026 52.6216 14.0321 54.9104 14.4944C54.1855 14.6921 53.4248 14.721 52.6871 14.5789C53.3305 16.5798 55.186 17.959 57.2874 17.9984C55.5441 19.3685 53.3894 20.1126 51.1722 20.1104C50.7804 20.1097 50.389 20.086 50 20.0394C52.2516 21.4843 54.8722 22.2509 57.5475 22.2474" fill="#D0CFD4"/>
<g clip-path="url(#clip1_916_263)">
<path d="M112 0.5C108.741 0.5 108.332 0.513828 107.052 0.572234C105.775 0.6305 104.903 0.833328 104.139 1.13C103.35 1.43666 102.681 1.847 102.014 2.51412C101.347 3.1812 100.937 3.85044 100.63 4.63953C100.333 5.4028 100.13 6.27514 100.072 7.55239C100.014 8.83231 100 9.24097 100 12.5C100 15.7589 100.014 16.1676 100.072 17.4475C100.13 18.7248 100.333 19.5971 100.63 20.3604C100.937 21.1495 101.347 21.8187 102.014 22.4859C102.681 23.153 103.35 23.5633 104.139 23.87C104.903 24.1666 105.775 24.3695 107.052 24.4277C108.332 24.4861 108.741 24.4999 112 24.4999C115.259 24.4999 115.668 24.4861 116.948 24.4277C118.225 24.3695 119.097 24.1666 119.86 23.87C120.649 23.5633 121.319 23.153 121.986 22.4859C122.653 21.8187 123.063 21.1495 123.37 20.3604C123.667 19.5971 123.869 18.7248 123.928 17.4475C123.986 16.1676 124 15.7589 124 12.5C124 9.24097 123.986 8.83231 123.928 7.55239C123.869 6.27514 123.667 5.4028 123.37 4.63953C123.063 3.85044 122.653 3.1812 121.986 2.51412C121.319 1.847 120.649 1.43666 119.86 1.13C119.097 0.833328 118.225 0.6305 116.948 0.572234C115.668 0.513828 115.259 0.5 112 0.5V0.5ZM112 2.6622C115.204 2.6622 115.584 2.67439 116.849 2.73214C118.019 2.78553 118.654 2.981 119.077 3.1453C119.637 3.36298 120.037 3.62305 120.457 4.04295C120.877 4.46286 121.137 4.86266 121.355 5.42272C121.519 5.84558 121.714 6.48097 121.768 7.65092C121.826 8.91631 121.838 9.29586 121.838 12.5C121.838 15.7041 121.826 16.0836 121.768 17.349C121.714 18.5189 121.519 19.1543 121.355 19.5772C121.137 20.1373 120.877 20.537 120.457 20.957C120.037 21.3769 119.637 21.6369 119.077 21.8546C118.654 22.019 118.019 22.2144 116.849 22.2678C115.584 22.3255 115.204 22.3377 112 22.3377C108.796 22.3377 108.416 22.3255 107.151 22.2678C105.981 22.2144 105.346 22.019 104.923 21.8546C104.363 21.6369 103.963 21.3769 103.543 20.957C103.123 20.537 102.863 20.1373 102.645 19.5772C102.481 19.1543 102.285 18.5189 102.232 17.349C102.174 16.0836 102.162 15.7041 102.162 12.5C102.162 9.29586 102.174 8.91631 102.232 7.65092C102.285 6.48097 102.481 5.84558 102.645 5.42272C102.863 4.86266 103.123 4.46286 103.543 4.04295C103.963 3.62305 104.363 3.36298 104.923 3.1453C105.346 2.981 105.981 2.78553 107.151 2.73214C108.416 2.67439 108.796 2.6622 112 2.6622Z" fill="#D0CFD4"/>
<path d="M112.001 16.4981C109.792 16.4981 108.001 14.7072 108.001 12.4981C108.001 10.289 109.792 8.49809 112.001 8.49809C114.21 8.49809 116.001 10.289 116.001 12.4981C116.001 14.7072 114.21 16.4981 112.001 16.4981ZM112.001 6.33594C108.598 6.33594 105.839 9.09481 105.839 12.4981C105.839 15.9013 108.598 18.6602 112.001 18.6602C115.404 18.6602 118.163 15.9013 118.163 12.4981C118.163 9.09481 115.404 6.33594 112.001 6.33594Z" fill="#D0CFD4"/>
<path d="M119.846 6.10011C119.846 6.89544 119.201 7.54011 118.406 7.54011C117.611 7.54011 116.966 6.89544 116.966 6.10011C116.966 5.30483 117.611 4.66016 118.406 4.66016C119.201 4.66016 119.846 5.30483 119.846 6.10011Z" fill="#D0CFD4"/>
</g>
<g clip-path="url(#clip2_916_263)">
<path d="M173.498 6.72102C173.222 5.68836 172.409 4.87522 171.377 4.59927C169.505 4.09766 162 4.09766 162 4.09766C162 4.09766 154.495 4.09766 152.623 4.59927C151.591 4.87522 150.777 5.68836 150.501 6.72102C150 8.59264 150 12.4977 150 12.4977C150 12.4977 150 16.4028 150.501 18.2742C150.777 19.3069 151.591 20.1202 152.623 20.3961C154.495 20.8976 162 20.8976 162 20.8976C162 20.8976 169.505 20.8976 171.377 20.3961C172.409 20.1202 173.222 19.3069 173.498 18.2742C174 16.4028 174 12.4977 174 12.4977C174 12.4977 174 8.59264 173.498 6.72102Z" fill="#D0CFD4"/>
<path d="M159.601 16.1024L165.836 12.5024L159.601 8.90234V16.1024Z" fill="white"/>
</g>
<defs>
<clipPath id="clip0_916_263">
<rect width="24" height="24" fill="white" transform="translate(0 0.5)"/>
</clipPath>
<clipPath id="clip1_916_263">
<rect width="24" height="24" fill="white" transform="translate(100 0.5)"/>
</clipPath>
<clipPath id="clip2_916_263">
<rect width="24" height="24" fill="white" transform="translate(150 0.5)"/>
</clipPath>
</defs>
</svg>
